<svg width="250" height="250" viewBox="0 0 250 250" fill="none" xmlns="http://www.w3.org/2000/svg">
    <g filter="url(#filter0_i_258_4)">
        <rect width="250" height="250" rx="50" fill="url(#paint0_linear_258_4)" fill-opacity="0.74" />
    </g>
    <path
        d="M57.2422 60L76.6875 148.469L96.1328 60H150.609L170.055 148.469L189.352 60H237.891L196.18 212H143.781L123.297 120.117L102.812 212H50.5625L8.70312 60H57.2422ZM29.1875 84.4922C28.4453 86.2734 27.5547 88.2031 26.6641 90.1328L26.5156 90.4297L32.8984 113.289L33.4922 110.914H33.9375L33.6406 116.258L39.2812 136.742C40.6172 133.477 42.1016 130.359 43.8828 127.242C49.5234 117.594 53.3828 105.125 55.9062 94.4375L56.0547 93.8438L52.3438 78.5547L42.1016 104.234C42.25 102.898 42.25 102.008 42.3984 100.523C43.1406 92.2109 46.2578 82.8594 49.6719 75.2891L50.8594 72.4688L49.9688 69.0547H35.125C33.3438 74.25 31.4141 79.4453 29.1875 84.4922ZM23.9922 81.2266C26.3672 77.2188 28.1484 73.5078 30.0781 69.0547H20.7266L23.9922 81.2266ZM50.8594 178.602L56.2031 198.344C58.1328 192.258 60.3594 186.32 63.1797 180.68C66.4453 174.445 69.5625 161.977 71.0469 155.445L71.1953 154.852L68.6719 144.312C67.1875 147.281 64.5156 150.992 62.1406 153.219L61.1016 153.961C61.8438 152.18 62.1406 151.438 62.7344 149.508C63.9219 144.609 64.9609 138.375 65.7031 133.477V132.734L61.6953 116.555C59.6172 128.281 57.3906 140.008 55.3125 151.883C54.4219 157.227 53.5312 162.719 52.6406 168.211C52.1953 171.625 51.4531 175.039 50.8594 178.602ZM70.3047 202.797H77.7266V194.039C78.3203 191.516 80.25 184.984 82.625 183.945L83.2188 183.648C82.7734 185.578 82.3281 187.062 82.1797 188.992C82.1797 189.289 82.0312 190.328 82.0312 191.219C82.0312 192.555 82.1797 193.742 82.9219 193.742C83.5156 193.742 84.8516 190.328 85 189.883C86.9297 184.688 88.8594 176.672 90.0469 171.18C90.4922 169.695 90.7891 168.359 91.0859 166.875C94.2031 150.844 97.1719 134.812 100.141 118.781C102.367 107.203 104.445 95.0312 106.227 83.3047C106.969 78.5547 107.859 73.8047 108.898 69.0547H103.406L95.0938 100.078C96.1328 98.8906 96.7266 98.4453 97.7656 97.4062C96.875 99.7812 96.5781 100.82 95.9844 103.492C94.2031 110.469 93.0156 119.969 91.9766 127.094C91.3828 131.547 90.7891 136 90.0469 140.305C89.4531 144.016 88.8594 147.727 88.1172 151.289C86.6328 157.969 84.1094 164.648 80.6953 170.586C80.6953 175.484 80.3984 180.531 79.0625 185.281C77.1328 192.555 73.4219 196.414 70.3047 202.797ZM85.7422 202.797H95.0938L95.8359 200.57H96.1328L115.43 123.68C113.055 127.688 111.719 130.508 109.938 134.812C107.117 141.789 104.891 149.211 103.109 156.633C98.9531 173.703 92.8672 186.914 85.7422 202.797ZM124.93 94.2891L128.492 108.984C131.312 94.2891 135.172 82.8594 140.664 69.0547H129.086C128.195 72.0234 128.047 73.2109 127.602 76.4766C126.711 82.5625 126.117 88.0547 124.93 94.2891ZM131.016 119.227L138.438 150.102C140.812 146.242 143.484 142.68 146.453 139.266C150.164 134.664 154.023 130.359 156.844 125.016L156.992 124.867L153.578 110.914L147.938 123.383L147.344 123.234C148.68 117.445 150.461 111.359 152.094 105.57L152.242 105.125L145.562 78.7031C139.625 92.2109 135.172 104.977 131.016 119.227ZM140.812 160.344L146.008 181.57C147.344 177.711 149.125 174 151.5 170.734C155.656 164.5 159.812 154.703 162.484 147.727L162.633 147.281L158.18 129.172C154.172 140.75 147.344 150.102 140.812 160.344ZM148.383 191.516L151.055 202.797H159.367C160.555 200.57 162.336 196.711 162.781 194.336C164.562 186.172 166.047 178.156 167.977 170.141L168.125 169.547L165.008 156.93L148.383 191.516ZM171.984 202.797H180.297C182.82 188.992 187.125 180.086 191.727 167.469C193.656 162.125 193.805 160.641 194.992 155.297C195.883 151.289 196.773 147.43 197.812 143.57C199.445 137.336 202.266 128.133 206.422 123.086C207.312 121.898 209.242 119.969 210.875 119.969H211.766L211.023 120.562C206.273 123.977 203.305 139.711 202.266 145.797L201.375 151.141C201.375 152.477 201.227 153.812 201.227 155C201.078 157.375 200.781 159.602 200.484 161.977L217.555 100.078L215.477 100.672L218.297 97.2578L226.016 69.0547H218.148L196.031 123.531C192.023 131.844 182.375 152.18 180 160.789C176.586 172.812 173.469 185.281 172.43 197.898L171.984 202.797ZM189.352 202.648L195.438 180.086C194.992 180.977 194.547 181.719 193.953 182.461C190.391 187.359 189.352 194.336 189.352 200.422V202.648ZM216.812 69.0547H205.531C199 79.7422 193.656 89.5391 188.461 100.82H188.164L173.617 154.852C178.367 146.984 188.164 131.992 189.5 123.383C190.836 114.773 212.508 76.625 216.812 69.0547ZM117.359 69.0547H115.727L115.133 74.8438L117.359 69.0547ZM74.9062 169.695L74.1641 166.578C72.3828 171.477 70.4531 176.227 68.6719 181.125C67.6328 183.797 65.8516 188.844 65.4062 191.516C65.4062 191.664 65.2578 192.109 65.2578 192.555C65.2578 192.852 65.2578 193 65.4062 193.148C66.1484 192.852 68.2266 187.805 68.5234 187.062C70.75 181.57 72.9766 175.484 74.9062 169.695Z"
        fill="black" />
    <path
        d="M214.288 49V40.168H198.16L208.288 12.52L213.28 14.392L205.648 35.128H214.288L214.576 27.112H219.904V35.128H224.8V40.168H219.904V49H214.288Z"
        fill="black" />
    <defs>
        <filter id="filter0_i_258_4" x="0" y="0" width="250" height="254" filterUnits="userSpaceOnUse"
            color-interpolation-filters="sRGB">
            <feFlood flood-opacity="0" result="BackgroundImageFix" />
            <feBlend mode="normal" in="SourceGraphic" in2="BackgroundImageFix" result="shape" />
            <feColorMatrix in="SourceAlpha" type="matrix" values="0 0 0 0 0 0 0 0 0 0 0 0 0 0 0 0 0 0 127 0"
                result="hardAlpha" />
            <feOffset dy="4" />
            <feGaussianBlur stdDeviation="15" />
            <feComposite in2="hardAlpha" operator="arithmetic" k2="-1" k3="1" />
            <feColorMatrix type="matrix" values="0 0 0 0 0.6 0 0 0 0 0.235294 0 0 0 0 0 0 0 0 1 0" />
            <feBlend mode="normal" in2="shape" result="effect1_innerShadow_258_4" />
        </filter>
        <linearGradient id="paint0_linear_258_4" x1="23.8375" y1="1.26603e-05" x2="226.163" y2="250"
            gradientUnits="userSpaceOnUse">
            <stop offset="0.51" stop-color="#993C00" />
            <stop offset="0.9999" stop-color="#FF6400" />
        </linearGradient>
    </defs>
</svg>