<?xml version="1.0" encoding="utf-8"?>
<!-- Generator: Adobe Illustrator 26.3.1, SVG Export Plug-In . SVG Version: 6.00 Build 0)  -->
<svg version="1.1" id="Layer_1" xmlns="http://www.w3.org/2000/svg" xmlns:xlink="http://www.w3.org/1999/xlink" x="0px" y="0px"
	 viewBox="0 0 212 89.8" style="enable-background:new 0 0 212 89.8;" xml:space="preserve">
<style type="text/css">
	.st0{enable-background:new    ;}
	.st1{fill:#231F20;}
	.st2{fill:#FFFFFF;}
	.st3{fill:#F37321;}
</style>
<g class="st0">
	<path class="st1" d="M70.1,61.8c2-0.9,2.7-1.8,3.6-5.2L79.5,33c0.4-1.7,0.7-3,0.7-4.1c0-0.9-0.2-2-1.7-2.8l2.5-9.8h22.9
		c13.3,0,18.2,5,18.2,12.2c0,7.9-6.9,13.4-12.1,15.5c3.4,1.4,4.9,3.9,4.9,6.9c0,1.9-0.2,3.1-0.6,4.5l-0.2,0.7
		c-0.4,1.6-0.6,2.7-0.6,3.6c0,1.2,0.3,1.7,1.6,2.2l-2.4,9.8H93.9c0.1-3.4,0.5-6.2,1.6-10.4l1.3-5.3c0.2-0.8,0.2-1.3,0.2-2.1
		c0-2.1-0.8-3.6-4.5-3.6h-0.2l-1.6,6.4c-0.3,1.3-0.6,2.3-0.6,3c0,1.1,0.3,1.7,1.9,2.2l-2.4,9.8h-22L70.1,61.8z M95.1,39.1h1.4
		c4.5,0,7.1-4.1,7.1-7.5c0-2.3-1.4-3.6-4.4-3.6h-1.3L95.1,39.1z"/>
	<path class="st1" d="M119.2,61.8c2-0.9,2.7-1.8,3.6-5.2l5.8-23.6c0.4-1.7,0.7-2.9,0.7-4.1c0-0.9-0.2-2-1.7-2.8l2.5-9.8h22l-2.5,9.8
		c-1.9,0.9-2.6,1.9-3.5,5.3l-5.8,23.5c-0.4,1.7-0.7,2.8-0.7,4.1c0,0.9,0.2,1.9,1.7,2.7l-2.5,9.8h-22L119.2,61.8z"/>
	<path class="st1" d="M158.1,61.8c2.6-1.2,3.5-2.4,4.2-5.5l7.2-28.6h-0.1c-2,0-3.4,0.7-4.1,3.3l-2.6,10.4h-12.2l6.3-25.1h47.5
		L198,41.5h-12.2l2.2-8.6c0.3-1.2,0.4-2.5,0.4-2.8c0-1.4-0.7-2.3-2.1-2.3h-0.1l-6.9,27.1c-0.3,1.3-0.5,2.8-0.5,3.6
		c0,1.9,0.8,2.8,2.2,3.3l-2.4,9.8h-22.8L158.1,61.8z"/>
</g>
<path class="st2" d="M10.8,48.3c1.2,2.7,3.8,6,8.3,6c2.9,0,5.7-2,5.7-5.9c0-5.2-4.4-9.6-8.9-9.6c-8,0-8.8,9.5-6.7,13.7
	C9.3,52.6,10,49.4,10.8,48.3 M16,40.1c4.7,0,7.7,5,7.7,8.4s-2.6,4.7-4.6,4.7c-6.1,0-7.7-6.9-7.7-6.9s-1.4,1-1.8,1.9
	C9.5,48.1,9.2,40.1,16,40.1"/>
<path class="st2" d="M18.4,29.2c0,6,4.6,10.2,8.7,10.2c4.9,0,8.6-4.3,8.6-10c0-6.8-4.9-10.4-9.6-10.4c-9.5,0-11.9,10.1-11.9,10.1
	s2.2-2.2,4.5-2.8C18.5,27,18.4,28,18.4,29.2 M16.8,25.7c0,0,2.7-5.6,9.2-5.6c5.2,0,8.4,4.4,8.4,9.2s-2.9,8.8-7.4,8.8
	c-3.5,0-7.5-3.7-7.5-9c0-2.9,0.8-4.3,0.8-4.3C18.4,24.9,16.8,25.7,16.8,25.7"/>
<path class="st2" d="M41.7,12.6c-1.5,1.4-3.5,4-3.5,8c0,6.3,5,9.2,8.3,9.2c6.6,0,10.6-5.7,10.6-11.2s-5.4-10-11.6-10
	c-5.3,0-9.5,3.8-9.5,3.8S39.8,11.9,41.7,12.6 M45.5,9.7c6.8,0,10.4,5.1,10.4,8.8c0,4.7-3.2,10.1-9.4,10.1c-2.6,0-7.1-2.4-7.1-8.1
	s4.5-8.2,4.5-8.2s-2-1.2-3.8-1.3C40.2,11,42.9,9.7,45.5,9.7"/>
<path class="st2" d="M68.5,41.3c4.1,0,6.2-3.7,6.2-7.3c0-7.7-6-12.5-10.4-12.5c0,0,2.6,1.9,2.8,3.3c-0.1,0-0.2,0-0.3,0
	c-3.2,0-6.5,2.6-6.5,7.6C60.4,36.6,63.7,41.3,68.5,41.3 M66.8,26c0.9,0,1.7,0.3,1.7,0.3c0-1.4-0.5-2.5-0.5-2.5s5.5,3,5.5,10.2
	c0,2.9-1.6,6.1-5,6.1s-7-3.3-7-7.7S64.4,26,66.8,26"/>
<path class="st2" d="M23.5,75.2c0,0,1.2-3.1,4.9-5.2c0,0,0,7.4,4.7,7.4s7.6-9.6,31.5-6.6c0,0,5.7-3.2,5.7-9.5
	c0-12.1-9.9-24.8-22.3-24.8c-9.8,0-16.8,8-16.8,8s5.1-2.2,7.7-1C17.6,54.6,19.6,69.9,23.5,75.2 M41.2,43.7c0,0-1.5-2.1-5.2-1.8
	c0,0,5.2-4.2,12-4.2c13,0,21.1,13.9,21.1,23.6c0,5.2-4.8,8.2-4.8,8.2c-24.6-2.6-27.4,6.6-31.2,6.6c-3.2,0-3.9-6.4-3.4-8.2
	c-4.7,2-6.2,4.7-6.2,4.7C19.5,65.2,24.4,50.8,41.2,43.7"/>
<path class="st2" d="M15.4,61.8c-3.3,14.9,9,22.8,9,22.8s0.9-2.2,1.7-3.4c0,0,2.1,3.1,5.9,3.1c6.9,0,16.7-11.9,36.1-6.8
	c0,0,8.4-5.5,8.4-16.5c0-7.1-3.3-13.8-3.3-13.8s7.2-3.5,7.2-14.9c0-13.6-16.8-18.6-16.8-18.6l-1,1.4c0,0-3.2-12.2-16.2-12.2
	c-9.6,0-17.1,6.2-17.1,6.2c1.1,1.9,1.4,4.1,1.4,4.1C10.7,9.5,7.4,30.9,7.4,30.9c1.3,1,2.8,2.3,2.8,2.3s-7.7,3-7.7,13.2
	C2.5,55.7,11.4,61.6,15.4,61.8 M14,34.3c0,0-1.4-2.8-4-4.5c0,0,4.3-19.6,22.9-13.7c0,0,0.8-3.2-0.6-6.3c0,0,6.7-4.6,14.1-4.6
	c8.1,0,13.9,6.2,14.5,13.7c0,0,2.5-0.6,3.6-2.4c0,0,13.5,5.1,13.5,15.7c0,11.3-8.1,13.9-8.1,13.9S74.1,53,74.1,61
	c0,9.1-6.5,13.8-6.5,13.8c-22.5-3.9-29.5,7.1-35.6,7.1c-4.6,0-5.3-5.7-5.3-5.7c-1.5,1.3-3.1,4.5-3.1,4.5s-9.9-7.8-5-21.2
	C14,60.5,4.9,55.7,4.9,46.4C4.9,36.2,14,34.4,14,34.3"/>
<path class="st3" d="M11.4,46.3c0,0,1.7,6.9,7.7,6.9c2,0,4.5-1.3,4.5-4.7s-3-8.4-7.7-8.4c-6.8,0-6.4,8.1-6.4,8.1
	C9.9,47.2,11.3,46.3,11.4,46.3"/>
<path class="st3" d="M19.6,29.2c0,5.3,4.1,9,7.5,9c4.4,0,7.4-4.1,7.4-8.9s-3.2-9.2-8.4-9.2c-6.5,0-9.2,5.6-9.2,5.6s1.6-0.9,3.6-0.9
	C20.4,24.9,19.6,26.3,19.6,29.2"/>
<path class="st3" d="M39.4,20.6c0,5.7,4.5,8.1,7.1,8.1c6.2,0,9.4-5.4,9.4-10.1c0-3.7-3.6-8.8-10.4-8.8c-2.6,0-5.3,1.3-5.3,1.3
	c1.7,0.1,3.8,1.3,3.8,1.3S39.4,14.9,39.4,20.6"/>
<path class="st3" d="M68.5,40.1c3.4,0,5-3.2,5-6.1c0-7.2-5.5-10.1-5.5-10.1s0.5,1.1,0.5,2.5c0,0-0.8-0.3-1.7-0.3
	c-2.5,0-5.3,2-5.3,6.4S65.1,40.1,68.5,40.1"/>
<path class="st3" d="M41.2,43.7c-16.8,7-21.8,21.5-17.7,29c0,0,1.5-2.8,6.2-4.7c-0.5,1.8,0.2,8.2,3.4,8.2c3.9,0,6.6-9.3,31.2-6.6
	c0,0,4.8-3.1,4.8-8.2c0-9.7-8.1-23.6-21.1-23.6c-6.8,0-12,4.2-12,4.2C39.8,41.6,41.2,43.7,41.2,43.7"/>
<path class="st1" d="M18.6,59.6c-4.8,13.4,5,21.2,5,21.2s1.6-3.2,3.1-4.5c0,0,0.7,5.7,5.3,5.7c6.1,0,13.1-11.1,35.6-7.1
	c0,0,6.5-4.7,6.5-13.8c0-8-4.1-14.8-4.1-14.8s8.1-2.7,8.1-13.9c0-10.6-13.5-15.7-13.5-15.7C63.5,18.3,61,19,61,19
	c-0.7-7.5-6.5-13.7-14.5-13.7c-7.5,0-14.1,4.6-14.1,4.6c1.3,3.1,0.6,6.3,0.6,6.3C14.3,10.3,10,29.9,10,29.9c2.6,1.7,4,4.5,4,4.5
	s-9.1,1.8-9.1,12C4.9,55.6,14,60.5,18.6,59.6 M70.3,61.3c0,6.2-5.7,9.5-5.7,9.5c-23.9-3-26.8,6.6-31.5,6.6S28.4,70,28.4,70
	c-3.7,2.1-4.9,5.2-4.9,5.2c-3.9-5.2-5.9-20.6,15.4-31.7c-2.6-1.2-7.7,1-7.7,1s7.1-8,16.8-8C60.4,36.5,70.3,49.2,70.3,61.3
	 M66.8,24.8c0.1,0,0.2,0,0.3,0c-0.3-1.4-2.8-3.3-2.8-3.3c4.4,0,10.4,4.7,10.4,12.5c0,3.6-2.1,7.3-6.2,7.3c-4.8,0-8.2-4.7-8.2-8.9
	C60.4,27.4,63.6,24.8,66.8,24.8 M45.5,8.6c6.2,0,11.6,4.3,11.6,10s-4,11.2-10.6,11.2c-3.3,0-8.3-2.9-8.3-9.2c0-4,2-6.6,3.5-8
	c-1.8-0.6-5.7-0.2-5.7-0.2S40.1,8.6,45.5,8.6 M26,19c4.6,0,9.6,3.6,9.6,10.4c0,5.7-3.7,10-8.6,10c-4.1,0-8.7-4.2-8.7-10.2
	c0-1.2,0.1-2.1,0.3-2.9c-2.4,0.6-4.5,2.8-4.5,2.8S16.5,19,26,19 M15.9,38.9c4.4,0,8.9,4.4,8.9,9.6c0,3.9-2.9,5.9-5.7,5.9
	c-4.5,0-7.1-3.3-8.3-6c-0.8,1-1.5,4.2-1.5,4.2C7.2,48.4,7.9,38.9,15.9,38.9"/>
<polygon class="st1" points="72.6,78 72.6,76.4 73.2,76.4 73.2,76.2 71.9,76.2 71.9,76.4 72.4,76.4 72.4,78 "/>
<polygon class="st1" points="74.9,78 74.9,76.2 74.6,76.2 74.2,77.7 73.7,76.2 73.4,76.2 73.4,78 73.6,78 73.6,76.5 74.1,78 
	74.3,78 74.8,76.5 74.8,78 "/>
</svg>
