<svg width="63" height="62" viewBox="0 0 63 62" fill="none" xmlns="http://www.w3.org/2000/svg">
<rect width="63" height="62" fill="white"/>
<path d="M49.875 28.4166H13.125C10.2255 28.4166 7.875 30.7298 7.875 33.5833V51.6666C7.875 54.5201 10.2255 56.8333 13.125 56.8333H49.875C52.7745 56.8333 55.125 54.5201 55.125 51.6666V33.5833C55.125 30.7298 52.7745 28.4166 49.875 28.4166Z" stroke="black" stroke-opacity="0.5" stroke-linecap="round" stroke-linejoin="round"/>
<path d="M18.375 28.4166V18.0833C18.375 14.6576 19.7578 11.3722 22.2192 8.94983C24.6806 6.52749 28.019 5.16663 31.5 5.16663C34.981 5.16663 38.3194 6.52749 40.7808 8.94983C43.2422 11.3722 44.625 14.6576 44.625 18.0833V28.4166" stroke="black" stroke-opacity="0.5" stroke-linecap="round" stroke-linejoin="round"/>
</svg>
