<svg id="Layer_1" data-name="Layer 1" xmlns="http://www.w3.org/2000/svg" viewBox="0 0 1500 1500"><defs><style>.cls-1{fill:#fff;}.cls-2{fill:#231f20;}</style></defs><title>RIT-00033A_kw</title><path class="cls-1" d="M974.64233,1106.06006c-15.35-21.63-30.79-43.29-45.71-63.826-27.622-38.05-53.428-72.238-73.59189-95.07805-7.83215-8.87-18.25816-19.182-28.83016-31.626-10.658-12.586-21.544-27.406-30.012-45.132-16.994-35.63-23.906-82.406-.808-145.29608,19.904-54.178,51.414-82.736,79.468-94.942,53.544-23.314,131.25407-14.646,187.3901-23.062,28.11217-4.222,66.334-12.66,104.208-20.292,38.194-7.734,75.982-14.632,102.82605-15.684,11.032-.432,21.112-.452,30.35818-.122.51784-8.144-1.00816-18.102-9.70617-23.922-16.532-11.06-45.51-10.388-84.478-45.37-9.534-8.576-9.534-21.372-8.094-30.042a30.61026,30.61026,0,0,1,1.7-7.344c.028-.116.086-.23.114-.354.376-1.13.606-1.756.606-1.756l.056.116c.318-.742.66216-1.484,1.068-2.226,12.786-23.826,39.342-25.836,61.608-27.248,25.374-1.598,60.054,13.106,76.5862,11.586a99.48832,99.48832,0,0,0,14.92-2.562c-5.41617-6.172-12.12617-10.974-20.10417-15.64-19.126-11.118-38.998-18.888-103.80606-39.224-16.244-5.098-28.802-8.964-38.70986-12.262-10.05216-3.342-17.68616-6.214-23.70617-9.316-12.93-6.662-52.306-55.82-52.306-55.82a70.178,70.178,0,0,1,10.024-2.212,45.92351,45.92351,0,0,1,17.398.886,34.94322,34.94322,0,0,1,15.034,8.966c.49.444.98.914,1.44,1.404a78.26636,78.26636,0,0,1,5.87616,6.912c1.64184,2.132,3.16784,4.278,4.60784,6.328,5.47216-2.734,12.3-5.406,19.038-6.112a55.04672,55.04672,0,0,0,5.79-.922c-.77585-1.85-1.526-3.628-2.332-5.328a25.84612,25.84612,0,0,0-4.206-6.56c-2.016-2.268-5.04-4.752-10.13785-7.582a131.06466,131.06466,0,0,0-15.72616-7.108c-16.072-6.228-31.77-11.506-45.97-16.74-14.286-5.294-27.68-10.758-38.538-17.384-10.138-6.17-36.55-21.89-60.314-36.052a89.06725,89.06725,0,0,0,11.35,16.036c18.75,21.464,31.568,35.152,31.568,35.152s-41.16-8.728-61.956-32.712c-14.342-16.562-40.956-48.108-73.992-49.944-33.096-1.814-95.856,6.898-95.856,6.898s9.936-16.662,43.492-26.096c3.14-.878,6.078-1.678,8.812-2.42l-27.448-2.346c-22.754.958-50.406,3.91-72.726,11.7-46.46,16.21-74.312,33.24-74.312,33.24a130.28344,130.28344,0,0,1,14.834-30.294c1.238-1.794,2.36214-3.492,3.398-5.09l-30.848,6.092c-11.982,5.406-25.95,12.126-41.85,20.486-61.83789,32.438-83.73,70.84-83.73,70.84s5.01214-19.278,22.668-51.852a151.90005,151.90005,0,0,1,9.822-15.82c-38.566,8.748-92.716,18.376-163.68608,25.036-30.156,2.83-62.444,1.722-90.41005-.116-20.42187-1.354-38.51-3.088-51.558-3.866-.576-.044-1.096-.078-1.642-.1,3.716,2.224,7.72,4.63,11.724,7.048,13.104,7.972,26.35415,16.274,30.73,19.902,18.752,15.454,57.262,32.484,136.06607,33.284,9.13.078,17.742.524,25.864,1.208l1.09414-.936-.89214.958c85.71605,7.288,115.61406,44.514,116.82406,46.078l8.786,11.348s-55.41789,3.824-92.60205,14.054a415.16974,415.16974,0,0,0-67.86,25.902c-10.254,10.334-107.43405,107.952-155.18808,153.32408-24.138,22.964-39.69,51.248-49.224,74.024-2.332,5.544-4.292,10.742-5.90387,15.43,3.02387-2.152,6.13387-4.184,9.38787-6.042,23.562-13.588,49.168-22.79,68.868-28.606a364.15637,364.15637,0,0,1,35.946-8.678s-33.354,35.082-45.796,47.74c-24.858,25.31-52.076,63.978-61.84,117.43606-6.424,35.11-11.522,70.366-16.59,100.24806-2.16,12.6-4.348,24.396-6.682,34.924L364.342,760.10987s-15.41,67.112-40.9,134.95608a454.829,454.829,0,0,0-22.87,87.07c-1.526,9.578-2.504,17.686-3.11,23.834l51.93-27.636a256.03976,256.03976,0,0,0,5.33,29.15,211.675,211.675,0,0,0,18.894,47.438c9.648,17.482,18.376,28.01,24.51,34.116,2.016,1.972,3.77414,3.5,5.156,4.638,6.79814-7.346,23.302-23.344,57.52-35.946,18.52-6.812,38.394-10.93,57.634-13.378-17.972-15.166-47.178-43.334-65.354-79.078-32.258-63.396-18.26-115.86006-18.26-115.86006S477.33408,936.642,547.06612,985.708c73.39,51.614,226.50411,95.41005,312.9143,117.30007-17.22615-29.594-41.21817-72.886-41.21817-72.886l30.674,9.346c1.528.476,16.562,5.4,35.86,21.746,17.456,14.762,38.394,38.884,56.022,77.538,36.232,79.566,46.978,96.33005,65.9,104.65405a68.80861,68.80861,0,0,0,14.172,4.508c4.608.936,8.726,1.34,12.298,1.742,2.16.232,4.176.446,5.99.722a53.16271,53.16271,0,0,1,6.452,1.38,22.96324,22.96324,0,0,1,13.366,9.91,37.29158,37.29158,0,0,1,2.966,6.004c1.23815-.604,32.632-27.318,32.632-27.318s5.244,8.15,6.684,14.414c1.67,7.244.518,8.888.864,9.808,1.18-.92,9.734-7.158,14.66-13.02,5.214-6.148,10.772-17.654,10.772-17.654s6.396,10.108,7.978,17.382a69.99074,69.99074,0,0,1,.98,8.02l3.226-1.786c10.944-6.206,23.704-15.45,32.806-27.952a178.1994,178.1994,0,0,0,17.91617-30.832c1.03584-2.304,2.01584-4.51,2.85185-6.582,4.118-10.038,4.434-10.024,4.434-10.024s21.978-6.682,30.762-17.268a32.85138,32.85138,0,0,0,6.078-12.946c-13.452,6.568-30.964,13.004-53.344,17.758C1115.92056,1183.5961,1019.83436,1169.62809,974.64233,1106.06006ZM1109.0064,567.50777c-42.856,3.218-66.938,18.398-119.58806,19.55-52.594,1.152-92.054-15.59-92.054-15.59s43.37618,5.746,74.858,2.29c44.444-4.882,91.362-30.272,127.45207-31.078,36.092-.758,72.98619,21.176,72.98619,21.176S1151.89442,564.30177,1109.0064,567.50777Zm-33.294-65.938c-41.274.916-68.29189,20.796-108.24206,33.902-76.528,25.122-137.93607-.232-137.93607-.232s59.478,10.744,127.42406-20.312c34.072-15.546,60.6-39.374,118.17606-40.626,57.55-1.268,100.63806,67.054,100.63806,67.054S1116.98441,500.67173,1075.71239,501.56974Zm6.596-84.14005c46.428,9.606,74.742,55.388,74.742,55.388s-2.678-1.8-7.286-4.528c-15.7-9.376-53.92-29.942-85.832-29.242-41.304.9-53.948,17.46-91.594,36.19-37.644,18.714-98.39005,22.286-98.39005,22.286s1.41215-.468,3.918-1.31c10.484-3.536,40.382-13.984,67.686-26.91,33.266-15.726,59.42-51.132,114.98006-53.514.28815-.044.576-.058.864-.08A73.08246,73.08246,0,0,1,1082.30839,417.42969Zm-312.82616-88.984,11.808-2.974-8.726-1.29c-32.576-5.874-44.012-15.626-46.776-18.492a6.94124,6.94124,0,0,1-.722-.82s21.776,5.566,66.938-6.214c45.134-11.796,92.80205-25.744,92.80205-25.744l43.58,27.716,3.71415,2.384,71.17189,45.234s12.356,5.02,20.306,3.732c19.586-3.14,25.664-23.088,26.874-28.162a10.48848,10.48848,0,0,0,.258-1.198s11.952,16.722,10.082,36.408c-1.268,13.502-12.07,41.936-74.974,32.21a158.5858,158.5858,0,0,1-32.748-8.85c-14.806,14.264-39.086,25.042-67.342,28.11-43.866,4.76-82.376-10.606-92.1679-35.174-8.35215,4.154-17.39816,7.538-26.49816,8.862-32.78,4.746-44.788-7.848-44.788-7.848s9.158,2.924,30.53-5.37c21.4-8.282,20.622-17.622,20.622-17.622s-26.814,3.184-54.752-5.998a172.10908,172.10908,0,0,1-46.978-23.826S721.46621,339.61365,769.48223,328.44564Zm-107.83806,50.64c54.35-1.186,123.79407,47.46,143.81008,53.048,19.96,5.568,55.676-2.42,55.676-2.42s-.144.21-.374.562c-2.046,2.874-12.81586,16.468-37.3,19.71-21.774,2.872-33.41-5.314-69.068-3.3-65.26789,3.616-95.28005,38.186-95.28005,38.186s10.802-22.56,36.838-38.364a129.38079,129.38079,0,0,1,50.23417-17.284s-41.73616-27.598-97.87219-26.366a107.53949,107.53949,0,0,0-82.202,40.842c-1.01,1.324-1.528,2.122-1.528,2.122S584.22214,380.76367,661.64417,379.08567Zm-46.228,370.4122s-4.438,3.96-19.846,19.196c-15.438,15.208-26.46987,34.448-26.46987,34.448s-.63414-59.304,50.31788-167.00409a278.133,278.133,0,0,1,46.69-69.278c23.416-25.448,43.32-37.558,43.32-37.558s-46.69,51.39-67.372,106.99406c-19.412,52.262-25.114,98.18205-26.354,110.13406C615.50215,748.40187,615.41615,749.49787,615.41615,749.49787ZM738.17221,976.404c-61.868-34.836-78.114-148.70608-66.102-235.90613a357.43753,357.43753,0,0,1,7.748-39.258c20.508-80.332,63.078-135.15807,63.078-135.15807s-96.31591,214.78211-10.514,351.75419c50.29,80.214,113.74206,83.384,113.74206,83.384s-.288.07-.834.172C838.80826,1002.514,795.23024,1008.52,738.17221,976.404Z"/><path class="cls-1" d="M1374.56854,543.83176a82.96353,82.96353,0,0,1-3.946,10.492c-1.354,2.93-3.14,5.954-5.07,9.238a63.55308,63.55308,0,0,1-12.616,14.588,111.22122,111.22122,0,0,1,26.356,10.448c5.154-12.91,9.82-30.898,10.16817-53.904-2.70817,1.778-5.50217,3.4-8.06617,4.882A68.62744,68.62744,0,0,0,1374.56854,543.83176Z"/><path class="cls-1" d="M1284.87649,450.50971a99.87224,99.87224,0,0,0-12.5-1.562c-20.278-.972-55.272,5.61-54.208,24.67a15.32428,15.32428,0,0,0,6.596,11.29c-1.066-19.082,33.93-25.64,54.208-24.668,20.306.978,52.766,13.046,69.386,11.52,13.192-1.188,29.32218-20.018,29.32218-20.018l-.55016-.958.376,1.038c-1.844.662-19.988,7.228-35.744,8.654C1328.25451,461.72171,1304.2905,453.96771,1284.87649,450.50971Z"/><path class="cls-1" d="M1277.38849,610.55179c-28.458-.1-65.584,6.776-102.68205,14.704-37.184,7.936-73.822,16.778-100.83806,20.358-3.198.424-6.654.82-10.312,1.208q-4.017.411-8.382.822c-4.436.388-9.072.778-13.91,1.13-7.346.548-15.036,1.038-22.928,1.47-27.42,1.54-56.886,2.518-79.898,3.102a59.65957,59.65957,0,0,0,9.418,11.852c7.114,6.784,16.418,11.566,28.514,11.176a24.81331,24.81331,0,0,0,16.562-7.424,21.93714,21.93714,0,0,0,2.794-3.262v-.022a58.01866,58.01866,0,0,0,9.476,9.672c0,.022.028.022.028.022.404.31.778.604,1.182.876.02815.024.058.038.086.06.374.25.748.502,1.124.74.028.022.056.06.086.08.376.23.72.446,1.094.642.028.02.05815.042.086.064.374.208.75.41,1.124.604h.03a20.41984,20.41984,0,0,0,3.34,1.348,1.4258,1.4258,0,0,1,.172.056c.29.08.576.158.864.216a2.46311,2.46311,0,0,0,.346.08c.23.058.432.094.664.136a2.835,2.835,0,0,0,.402.074c.202.02.404.064.576.078a3.72513,3.72513,0,0,0,.462.044c.17215.014.344.036.518.058a3.031,3.031,0,0,1,.46.022h.98a3.20727,3.20727,0,0,0,.46-.022,3.05813,3.05813,0,0,0,.462-.022c.17215,0,.316-.022.49-.036a3.22837,3.22837,0,0,1,.46-.044c.144-.014.288-.058.46215-.078.14185-.016.28585-.038.43185-.058.172-.038.316-.058.46-.094.144-.022.28815-.044.432-.078.172-.046.346-.08.488-.118.146-.02.26-.064.376-.078.23-.056.43215-.122.662-.18a1.916,1.916,0,0,0,.202-.058c8.524-2.498,15.178-9.1,22.724-2.946,3.082,9.218,6.166,19.298,8.036,27.754,7.058,31.386,7.174,55.748,6.914,82.332,0,1.8-.03,3.6-.058,5.4,8.208-8.28,16.878-19.514,24.97216-32.878v.028a245.16451,245.16451,0,0,0,15.66786-30.488c11.32-26.346,17.6-70.862,17.974-73.612a.22842.22842,0,0,1,.028-.136h0s0,.014.058.034c.836.592,11.002,7.584,21.342,10.256a25.08227,25.08227,0,0,0,10.428.784c10.426-1.836,22.78217-14.804,22.78217-14.804s6.85585,6.934,14.28585,10.484a20.76282,20.76282,0,0,0,6.252,1.994c9.30216,1.094,21.888-7.518,24.856-9.67.432-.31.662-.49.662-.49s13.882,10.334,24.02,9.944c3.516-.138,7.462-1.62,11.034-3.398a71.62835,71.62835,0,0,0,10.77016-6.798h0a38.26986,38.26986,0,0,0,7.20185,5.544,22.12407,22.12407,0,0,0,9.908,3.442,15.58354,15.58354,0,0,0,1.756-.022c13.02-.994,25.318-11.658,25.318-11.658l7.518,11.328a72.14408,72.14408,0,0,1,5.35816,11.506c3.68584,9.822,8.12185,25.952,9.50385,49.002.57616,9.51.692,18.712,1.03616,26.972a173.35265,173.35265,0,0,0,14.80584-28.924c.37417-.902.69-1.72.95-2.384v-.022c.028-.078.058-.136.086-.216-.028.08-.058.122-.086.202.116-.26.202-.49.318-.75v-.034a215.11683,215.11683,0,0,0,8.15-26.096,487.34013,487.34013,0,0,0,9.562-50.894c.692-5.278,1.268-10.254,1.758-14.848-5.242-1.656-11.29-3.414-17.714-5.042C1332.69052,615.6298,1305.9025,610.65379,1277.38849,610.55179Zm-225.81412,71.446c1.672,3.968,2.908,5.646,3.802,5.604C1054.48237,687.64383,1053.24637,685.96583,1051.57437,681.99783Zm291.08215,46.25a.82237.82237,0,0,0,.08416.138A.82237.82237,0,0,1,1342.65652,728.24786Zm.34416.41a.35553.35553,0,0,0,.08784.08A.35553.35553,0,0,1,1343.00068,728.65786Zm.46.252a.13163.13163,0,0,0,.08784.022A.13163.13163,0,0,1,1343.46068,728.90986Zm.40384.022a.87327.87327,0,0,0,.11616-.022A.87327.87327,0,0,1,1343.86452,728.93186Zm.548-.194a.4408.4408,0,0,1-.116.058A.4408.4408,0,0,0,1344.41252,728.73786Zm.402-.274a.509.509,0,0,1,.116-.1A.509.509,0,0,0,1344.81452,728.46386Zm.432-.432c.058-.036.088-.094.144-.136C1345.33452,727.93786,1345.30452,727.99586,1345.24652,728.03186Zm3.744-6.502c0-.036.03016-.058.03016-.1C1349.02068,721.47185,1348.99052,721.49385,1348.99052,721.52985Zm-3.224,5.918c.028-.022.028-.056.056-.078C1345.79452,727.39186,1345.79452,727.42586,1345.76652,727.44786Zm.488-.684a1.61536,1.61536,0,0,1,.14616-.194A1.61536,1.61536,0,0,0,1346.25452,726.76386Zm.462-.718c.028-.066.086-.138.116-.204C1346.80252,725.90786,1346.74452,725.97986,1346.71652,726.04586Zm.548-.944v0Zm.402-.8a.92016.92016,0,0,0,.116-.23A.92016.92016,0,0,1,1347.66652,724.30185Zm.46-.878a.40285.40285,0,0,1,.06-.174A.40285.40285,0,0,0,1348.12652,723.42385Zm.462-1.038.03-.012Zm1.93-4.644c.028-.08.058-.136.086-.214A.62514.62514,0,0,0,1350.51853,717.74185Zm.172-.49a.54191.54191,0,0,0,.058-.172A.54191.54191,0,0,1,1350.69053,717.25185Zm.144-.352v0Z"/><path class="cls-1" d="M837.91626,372.13167c4.46415,2.85,28.228,17.094,52.334,13.378,21.428-3.276,33.038-7.884,38.136-14.784a221.35359,221.35359,0,0,1-28.458-19.174l-2.764,5.66c-8.758,16.344-15.06385,21.386-15.06385,21.386s.72-20.818-1.7-33.772l-.63414-3.024c-25.202,2.772-37.84588,4.63-43.636,5.61a24.61453,24.61453,0,0,0-2.592,13.53A24.07992,24.07992,0,0,0,837.91626,372.13167Z"/><path class="cls-1" d="M1469.84859,524.90775c-1.556-40.036-15.46785-73.728-27.76786-96.33-4.26216-7.828-8.69616-14.82-12.55616-20.508a129.282,129.282,0,0,0-15.756-20.406c-21.342-22.48-50.80787-36.898-88.05005-51.19-13.336-5.12-26.152-9.908-38.01786-14.222l-5.21416-1.894-1.32584-5.37a201.35118,201.35118,0,0,0-7.17216-23.008c-12.038-32.402-40.726-51.816-59.074-61.896l-4.608-2.542-.662-5.212a75.46087,75.46087,0,0,0-2.132-10.686c-5.328-19.472-20.996-42.946-52.91-48.844-14.40186-2.636-32.518-.958-43.954.332-5.558.604-11.29,1.368-16.878,2.188l-3.686.526-3.226-1.936c-20.306-12.342-43.464-25.938-54.466-31.308-32.69186-15.7-58.902-19.708-76.328-19.846h-1.67l-1.584-.54c-7.662-2.622-18.404-6.136-30.588-9.692-22.784-6.66-55.878-15.058-84.04605-15.9a553.3446,553.3446,0,0,0-76.386,3.09l-5.56.626a910.81574,910.81574,0,0,0-112.82005,20.898s-95.048,24.942-150.32008,32.264c-54.84,7.246-135.54607,7.576-178.11609,5.84-11.982-.468-22.352-.936-31.252-.992-10.138-.044-21.486.366-32.374,2.512-30.732,6.178-56.856,28.112-64.114,64.532l-2.79387,18.614,2.42,9.318c9.47588,36.58,45.3359,91.19,68.89591,120.43206a291.71654,291.71654,0,0,0,28.486,30.624l7.546,7.012-6.97,7.612c-15.38,16.742-31.366,33.224-44.156,44.492-43.92189,38.64-118.17606,122.27007-146.57607,231.38812C73.78,763.01988,44.2,855.26192,33.80186,887.14594c13.824,2.246,35.974,5.818,46.084,7.014l22.352,2.504-8.268,13.84a108.86483,108.86483,0,0,1-8.208,12.01,87.899,87.899,0,0,1-8.958,9.966c-.836.78-15.06388,12.342-29.118,23.72L30,970.514c10.56988,9.132,27.27589,23.532,34.59189,29.41,5.616,4.492,11.694,9.202,17.36814,13.262,5.5,3.946,11.52,7.95,16.67588,10.37a209.24138,209.24138,0,0,0,53.314,16.388l9.736,1.714-1.672,13.306c-4.176,28.558-31.106,104.00606-31.39389,104.84206l-9.73413,27.09c36.952-7.908,118.69419-25.708,136.69607-31.8,7.634-2.592,16.41814-5.816,25.57814-9.748l7.42987-3.182,4.896,6.406c2.738,3.56,5.588,7.086,8.526,10.616,22.956,27.362,48.446,47.38,67.802,60.456,10.57,7.156,31.74,18.118,49.252,26.83,12.012,5.992,38.222,18.448,54.236,26.024l5.99-64.606,15.21,13.048c16.792,14.358,32.344,26.6,45.306,36.192,10.83,7.962,19.904,14.142,26.47,18.158a43.67625,43.67625,0,0,0,9.274,4.336l1.24.418,1.094.72c10.77,6.84,30.588,17.152,48.012,25.822,11.752,5.86,37.50216,18.116,53.344,25.648l4.408-47.424,1.668-17.138c.318-3.34.376-5.674.634-6.552l1.526-3.888c2.448-5.244,8.238-15.44,20.74-27.738,12.816-12.6,56.712-24.626,106.512-17.338l51.988,15.524,1.874,4.766c2.678,7.072,5.962,15.136,10.08,24.728,17.77,41.462,51.24,62.89,77.364,73.648l10.282,4.106-.892,61.42,33.35417-9.274-4.03216,26.542c37.702-13.868,127.91222-46.862,143.14808-50.406,60.342-14.07,98.21605-56.698,119.15806-88.408a288.11219,288.11219,0,0,0,22.522-41.202l1.066-2.406,2.074-1.598c2.996-2.29,6.25-4.884,9.706-7.778,31.828-26.628,41.736-67.916,40.584-97.972-.864-21.054-8.064-38.164-13.51-48.518l-4.318-7.648.084-2.894c.49-15.74.634-34.504-1.438-48.374-2.046-13.796-6.626-33.728-18.06-50.808-10.86-16.116-29.092-30.488-54.122-32.374l-7.17-.548-2.016-6.912c-6.74-23.216-11.982-47.006-13.624-67.902-1.526-19.098,5.416-44.86,18.03-72.44l16.88-35.772,5.788,31.87a87.01146,87.01146,0,0,0,6.654,21.486c6.422,13.812,19.5,30.274,42.742,36.596,27.362,7.444,48.764-7.232,57.548-14.49,10.716-8.828,19.528-20.248,26.5-31.078,14.17-22.09,26.554-51.066,33.698-80.244a546.667,546.667,0,0,0,10.398-54.884l.202-1.618.72-1.47c4.81-9.996,9.418-20.176,12.558-28.414C1460.28458,602.01979,1471.43259,564.43977,1469.84859,524.90775Zm-63.366,85.586c-3.66,9.514-9.476,21.856-15.036,33.066a504.4205,504.4205,0,0,1-10.628,58.982c-12.04,49.1-41.67786,96.366-59.506,91.52805-12.502-3.428-15.09185-17.052-16.1-26.586-1.15184-10.57-.894-24.136-1.73-38.062-1.036-17.324-3.974-29.768-6.566-37.754l-.604-1.798a32.94682,32.94682,0,0,1-20.25,4.47,48.839,48.839,0,0,1-15.004-4.37,48.89247,48.89247,0,0,1-23.964,7.69,32.34444,32.34444,0,0,1-3.918-.014c-17.8,25.54-66.332,101.52205-61.408,163.93809,3.974,50.952,24.97217,110.30006,38.768,144.74607,4.234-12.456,10.226-24.006,20.768-25.922,22.898-4.218,32.518,20.652,35.83,42.888,1.902,12.96,1.268,36.68.258,56.41-.056.822-.114,1.598-.17184,2.39,1.41184,1.758,2.68,3.342,3.34184,4.22a89.9997,89.9997,0,0,1,7.056,10.83c3.658,6.884,7.748,16.994,8.208,28.558.806,20.55-6.48,45.508-23.674,59.91a225.92391,225.92391,0,0,1-20.134,15.092,237.81033,237.81033,0,0,1-24.368,48.086c-17.828,27.046-47.006,58.298-90.46805,68.436-20.71,4.824-73.648,24.282-73.648,24.282l2.96616-19.516-42.94618,11.954.548-36.84c-6.366-.776-69.558-6.076-92.052-58.556-9.852-22.926-14.402-36.564-18.982-49.296-21.776-6.494-49.10788-14.66-77.796-23.242-55.762-9.188-120.85606.992-150.15008,29.824-16.618,16.346-25.576,30.962-30.358,41.334a75.62028,75.62028,0,0,0-4.522,12.11c-.748,2.678-1.814,11.522-1.814,11.522a315.7301,315.7301,0,0,1-33.122-18.522l.806,1.182s-69.098-45.538-133.64607-110.35806c-1.152.98-2.24586,1.988-3.312,3.024-16.59,16.346-25.548,30.948-30.328,41.318a75.68417,75.68417,0,0,0-4.522,12.112c-.748,2.664-1.84386,11.536-1.84386,11.536a311.5658,311.5658,0,0,1-36.20416-20.552c-16.938-11.462-38.768-28.688-58.066-51.714a333.53162,333.53162,0,0,1-34.968-51.384c-15.986,14.876-41.706,25.792-62.79,32.95-21.37188,7.244-48.59,12.946-48.59,12.946a353.26655,353.26655,0,0,0,14.864-61.45c2.1-14.416,2.62-41.446,2.504-67.846-9.562,2.088-23.504,3.17-42.858.404-43.002-6.15-62.9919-22.61-62.9919-22.61s35.19789-25.548,51.5279-85.704c3.31213-12.212,7.662-31.796,12.156-53.356-36.092,22.178-71.028,16.966-71.028,16.966s18.232-54.9,43.752-152.94208c25.144-96.62,91.99605-172.61609,132.08807-207.87011,19.356-17.014,43.694-43.182,63.366-65.318,11.55-12.982,21.4-24.452,27.536-31.696-14.574-6.798-42.282-23.108-70.25-57.794-22.84-28.342-53.142-76.348-59.9679-102.65206a1.84251,1.84251,0,0,1-.05813-.784l-.086-.038,1.326-7.208c3.052-15.532,12.442-23.38,26.93-26.268,6.596-1.33,14.258-1.662,22.784-1.628,8.438.066,18.288.512,29.608.96,44.528,1.82,128.92206,1.388,186.23809-6.208,57.404-7.598,155.73608-33.326,155.73608-33.326l.20214.34a782.89435,782.89435,0,0,1,106.54192-20.082l1.296-.138,4.004-.468,2.62-.31a503.60332,503.60332,0,0,1,67.082-2.52c21.688.664,49.8,7.496,72.23619,14.042,19.21186,5.622,34.59187,11.11,38.71187,12.616,5.616-.822,28.254-2.578,64.116,14.652,13.708,6.698,47.35,27.01,68.462,40.194,20.22-3.534,52.738-8.46,65.728-6.054,19.472,3.57,17.54,25.23,16.706,32.322-.49,4.118-2.506,10.666-4.118,15.446a209.49159,209.49159,0,0,1,29.464,12.248c16.158,8.282,34.996,21.134,41.678,39.202,9.246,24.762,9.188,40.214,8.61217,46.286,18.83585,6.58,43.63586,15.51,70.42187,25.784,36.436,13.964,57.174,25.334,70.74,39.668l.028-.02s.202.238.578.684a80.26075,80.26075,0,0,1,9.36,12.262,193.49765,193.49765,0,0,1,11.116,18.01c10.25617,18.794,20.912,45.278,22.094,75.628C1423.87856,557.03777,1415.23656,587.68378,1406.48255,610.49379Z"/><path class="cls-1" d="M1171.04843,1097.66405v.016a25.1299,25.1299,0,0,0-2.506-2.248c-3.63-2.952-7.258-4.118-12.96185-3.99a21.34493,21.34493,0,0,0-14.02616,6.092,23.12589,23.12589,0,0,0-3.198,3.66h0a16.71557,16.71557,0,0,0-4.724-4.668c-3.34-2.346-8.668-4.636-16.53185-4.42a27.174,27.174,0,0,0-11.43416,3.37c-.174.07-.34585.144-.548.246-.142.084-.288.156-.432.244a69.745,69.745,0,0,0-14.69,11.046s-.72-23.346-6.192-57.924a149.32,149.32,0,0,0-3.858-18.072v.028c-.404-1.512-.836-2.88-1.268-4.162-2.592-7.864-5.09785-12.386-6.684-16.864v.028c-.432.578-.892,1.24-1.352,1.944-.288.432-.576.85-.894,1.312-1.498,2.26-3.024,4.78-4.666,7.518-4.55,7.632-9.734,17.08-15.78186,27.85a107.61913,107.61913,0,0,1-38.48217,39.82,104.21015,104.21015,0,0,0,26.47,21.546c6.222,3.484,12.356,6.552,18.434,9.288,46.776,21.026,89.5182,21.228,125.46406,12.026a234.4519,234.4519,0,0,0,55.878-22.208c.662-.374,1.324-.762,1.988-1.136.46-6.812.978-15.138,1.382-23.88.894-19.08,1.18-38.32-.23-47.954,0-.058-.03-.116-.03-.174-.2-1.326-.432-2.592-.632-3.802a.11716.11716,0,0,1-.03-.086c-1.382-7.504-3.198-12.63-4.984-15.856a3.33384,3.33384,0,0,1-.23-.418c-.172-.274-.316-.546-.488-.778-.088-.13-.174-.288-.26-.402v-.03a44.53718,44.53718,0,0,0-2.046,4.652,136.9495,136.9495,0,0,0-4.348,13.336c-1.268,4.492-3.026,9.62-5.012,14.79-2.218,5.862-4.696,11.794-6.998,17.05-4.176,9.55-15.468,32.62-15.468,32.62h0a34.99935,34.99935,0,0,0-4.37785-4.162,13.37278,13.37278,0,0,0-2.96616-1.858,18.0675,18.0675,0,0,0-6.05-1.47A16.76856,16.76856,0,0,0,1171.04843,1097.66405Zm-92.342-68.694a3.70584,3.70584,0,0,0-.344-.432A3.70584,3.70584,0,0,1,1078.70639,1028.97Zm.89415,1.44a1.47,1.47,0,0,1-.14415-.316A1.47,1.47,0,0,0,1079.60054,1030.41Zm-.43215-.762c-.08785-.13-.174-.276-.26-.404C1078.99439,1029.372,1079.08054,1029.518,1079.16839,1029.648Z"/><path class="cls-1" d="M1355.76069,503.54374c-10.62817,5.854-12.81817,10.406-13.48,22.674-.43216,8.224-13.33617,43.788-13.33617,43.788s22.554-29.998,23.072-39.51c.634-12.27,2.39-17.656,13.48-22.676,6.796-3.11,14.716-8.574,12.038-27.564C1374.88454,482.22973,1374.85654,493.01573,1355.76069,503.54374Z"/><path class="cls-1" d="M1139.53842,923.538c-16.216-51.414-44.76-72.324-64.172-76.486a44.38948,44.38948,0,0,0-27.56587,3.198c2.79585,3.096,5.38585,6.178,7.66185,9.26,22.812,30.702,25.692,66.606,25.692,66.606a315.63793,315.63793,0,0,0-36.262-52.566c-20.91-24.178-48.014-34.302-97.26805-32.374-37.442,1.454-80.44389,25.678-98.99205,37.256,4.896,6.884,10.396,13.926,16.502,21.214,23.532-1.124,78.256-.576,100.75205,26.484,29.03417,34.952,26.47,84.73805,43.09,117.09806,1.382,2.65,2.76415,5.098,4.176,7.402a84.76964,84.76964,0,0,0,18.376-22.638c8.524-15.238,15.438-27.896,21.314-36.796,5.09816-7.762,12.068-17.312,21.314-17.872,12.99-.778,23.302,27.736,31.452,59.536,2.622,10.31,7.346,20.406,8.21,26.052,3.28216-.966,2.706-.98,7.056-.808a50.08947,50.08947,0,0,1,16.936,3.73c.978-.374,2.19015-.734,3.514-1.152a60.56174,60.56174,0,0,1,16.072-2.794,44.80926,44.80926,0,0,1,13.91,1.7,35.46512,35.46512,0,0,1,12.212-4.248c.578-.088,1.154-.146,1.70216-.202l-3.42816-11.78c-3.284-4.35-7.864-10.498-14.056-19.026C1151.80842,1002.386,1155.75443,974.966,1139.53842,923.538Z"/><path class="cls-2" d="M945.55232,469.30372c-27.304,12.926-57.202,23.374-67.686,26.91-2.50585.842-3.918,1.31-3.918,1.31s60.746-3.572,98.39005-22.286c37.646-18.73,50.29-35.29,91.594-36.19,31.912-.7,70.132,19.866,85.832,29.242,4.608,2.728,7.286,4.528,7.286,4.528s-28.314-45.782-74.742-55.388a83.76845,83.76845,0,0,0-18.866-1.778c-.98.036-1.93.08-2.91.138C1004.97235,418.17169,978.81834,453.57771,945.55232,469.30372Z"/><path class="cls-2" d="M1075.13438,474.30172c-57.576,1.252-84.104,25.08-118.17606,40.626-67.946,31.056-127.42406,20.312-127.42406,20.312s61.408,25.354,137.93607.232c39.95017-13.106,66.968-32.986,108.24206-33.902,41.272-.898,100.06005,39.786,100.06005,39.786S1132.68441,473.03372,1075.13438,474.30172Z"/><path class="cls-2" d="M1099.6744,542.67976c-36.09.806-83.008,26.196-127.45207,31.078-31.48186,3.456-74.858-2.29-74.858-2.29s39.46,16.742,92.054,15.59c52.65-1.152,76.732-16.332,119.58806-19.55,42.888-3.206,63.65419-3.652,63.65419-3.652S1135.76642,541.92176,1099.6744,542.67976Z"/><path class="cls-2" d="M732.38221,917.836c-85.8019-136.97208,10.514-351.75419,10.514-351.75419s-42.57,54.826-63.078,135.15807a357.43753,357.43753,0,0,0-7.748,39.258c-12.012,87.20005,4.234,201.07011,66.102,235.90613,57.058,32.116,100.63605,26.11,107.11806,24.988.546-.102.834-.172.834-.172S782.67224,998.05,732.38221,917.836Z"/><path class="cls-2" d="M666.10818,566.85977a278.133,278.133,0,0,0-46.69,69.278c-50.952,107.70005-50.31788,167.00409-50.31788,167.00409s11.03186-19.24,26.46987-34.448c15.408-15.236,19.846-19.196,19.846-19.196s.086-1.096.286-3.068c1.24-11.952,6.942-57.872,26.354-110.13406,20.682-55.604,67.372-106.99406,67.372-106.99406S689.52419,541.41176,666.10818,566.85977Z"/><path class="cls-2" d="M648.30817,402.85768c56.136-1.232,97.87219,26.366,97.87219,26.366a129.38079,129.38079,0,0,0-50.23417,17.284c-26.036,15.804-36.838,38.364-36.838,38.364s30.01216-34.57,95.28005-38.186c35.658-2.014,47.294,6.172,69.068,3.3,24.48416-3.242,35.254-16.836,37.3-19.71.23-.352.374-.562.374-.562s-35.716,7.988-55.676,2.42c-20.016-5.588-89.46005-54.234-143.81008-53.048-77.422,1.678-97.066,66.736-97.066,66.736s.518-.798,1.528-2.122A107.53949,107.53949,0,0,1,648.30817,402.85768Z"/><path class="cls-2" d="M1422.69856,526.76575c-1.182-30.35-11.83784-56.834-22.094-75.628a193.49765,193.49765,0,0,0-11.116-18.01,80.26075,80.26075,0,0,0-9.36-12.262c-.376-.446-.578-.684-.578-.684l-.028.02c-13.566-14.334-34.304-25.704-70.74-39.668-26.786-10.274-51.586-19.204-70.42187-25.784.57584-6.072.63384-21.524-8.61217-46.286-6.682-18.068-25.52-30.92-41.678-39.202a209.49159,209.49159,0,0,0-29.464-12.248c1.612-4.78,3.628-11.328,4.118-15.446.834-7.092,2.766-28.752-16.706-32.322-12.99-2.406-45.508,2.52-65.728,6.054-21.112-13.184-54.754-33.496-68.462-40.194-35.862-17.23-58.5-15.474-64.116-14.652-4.12-1.506-19.5-6.994-38.71187-12.616-22.43616-6.546-50.54818-13.378-72.23619-14.042a503.60332,503.60332,0,0,0-67.082,2.52l-2.62.31-4.004.468-1.296.138a782.89435,782.89435,0,0,0-106.54192,20.082l-.20214-.34s-98.33205,25.728-155.73608,33.326c-57.316,7.596-141.71007,8.028-186.23809,6.208-11.32-.448-21.17-.894-29.608-.96-8.526-.034-16.188.298-22.784,1.628-14.488,2.888-23.878,10.736-26.93,26.268l-1.326,7.208.086.038a1.84251,1.84251,0,0,0,.05813.784c6.82587,26.304,37.12789,74.31,59.9679,102.65206,27.968,34.686,55.676,50.996,70.25,57.794-6.136,7.244-15.986,18.714-27.536,31.696-19.672,22.136-44.01,48.304-63.366,65.318-40.092,35.254-106.94406,111.25006-132.08807,207.87011-25.52,98.04205-43.752,152.94208-43.752,152.94208s34.936,5.212,71.028-16.966c-4.494,21.56-8.84387,41.144-12.156,53.356-16.33,60.156-51.5279,85.704-51.5279,85.704s19.98988,16.46,62.9919,22.61c19.354,2.766,33.296,1.684,42.858-.404.116,26.4-.404,53.43-2.504,67.846a353.26655,353.26655,0,0,1-14.864,61.45s27.21814-5.702,48.59-12.946c21.084-7.158,46.804-18.074,62.79-32.95a333.53162,333.53162,0,0,0,34.968,51.384c19.298,23.026,41.128,40.252,58.066,51.714a311.5658,311.5658,0,0,0,36.20416,20.552s1.09586-8.872,1.84386-11.536a75.68417,75.68417,0,0,1,4.522-12.112c4.78-10.37,13.738-24.972,30.328-41.318,1.06614-1.036,2.16-2.044,3.312-3.024,64.548,64.82,133.64607,110.35806,133.64607,110.35806l-.806-1.182a315.7301,315.7301,0,0,0,33.122,18.522s1.066-8.844,1.814-11.522a75.62028,75.62028,0,0,1,4.522-12.11c4.782-10.372,13.74-24.988,30.358-41.334,29.294-28.832,94.38805-39.012,150.15008-29.824,28.68816,8.582,56.02,16.748,77.796,23.242,4.58,12.732,9.13,26.37,18.982,49.296,22.494,52.48,85.686,57.78,92.052,58.556l-.548,36.84,42.94618-11.954-2.96616,19.516s52.938-19.458,73.648-24.282c43.462-10.138,72.64-41.39,90.46805-68.436a237.81033,237.81033,0,0,0,24.368-48.086,225.92391,225.92391,0,0,0,20.134-15.092c17.194-14.402,24.48-39.36,23.674-59.91-.46-11.564-4.55-21.674-8.208-28.558a89.9997,89.9997,0,0,0-7.056-10.83c-.66184-.878-1.93-2.462-3.34184-4.22.05784-.792.11584-1.568.17184-2.39,1.01-19.73,1.644-43.45-.258-56.41-3.312-22.236-12.932-47.106-35.83-42.888-10.542,1.916-16.534,13.466-20.768,25.922-13.79585-34.446-34.794-93.79405-38.768-144.74607-4.924-62.416,43.608-138.39808,61.408-163.93809a32.34444,32.34444,0,0,0,3.918.014,48.89247,48.89247,0,0,0,23.964-7.69,48.839,48.839,0,0,0,15.004,4.37,32.94682,32.94682,0,0,0,20.25-4.47l.604,1.798c2.592,7.986,5.53,20.43,6.566,37.754.836,13.926.57816,27.492,1.73,38.062,1.00816,9.534,3.598,23.158,16.1,26.586,17.82817,4.838,47.466-42.428,59.506-91.52805a504.4205,504.4205,0,0,0,10.628-58.982c5.56-11.21,11.376-23.552,15.036-33.066C1415.23656,587.68378,1423.87856,557.03777,1422.69856,526.76575Zm-197.9341-41.858a15.32428,15.32428,0,0,1-6.596-11.29c-1.064-19.06,33.93-25.642,54.208-24.67a99.87224,99.87224,0,0,1,12.5,1.562c19.414,3.458,43.378,11.212,56.886,9.966,15.756-1.426,33.9-7.992,35.744-8.654l-.376-1.038.55016.958s-16.13017,18.83-29.32218,20.018c-16.62,1.526-49.08-10.542-69.386-11.52C1258.69448,459.26771,1223.69846,465.82572,1224.76446,484.90773Zm140.73207,22.912c-11.09,5.02-12.846,10.406-13.48,22.676-.518,9.512-23.072,39.51-23.072,39.51s12.904-35.564,13.33617-43.788c.66184-12.268,2.85184-16.82,13.48-22.674,19.09585-10.528,19.12385-21.314,21.77385-23.288C1380.21254,499.24573,1372.29254,504.70974,1365.49653,507.81974Zm.056,55.742c1.93-3.284,3.716-6.308,5.07-9.238a82.96353,82.96353,0,0,0,3.946-10.492,68.62744,68.62744,0,0,1,6.826-4.256c2.564-1.482,5.358-3.104,8.06617-4.882-.34817,23.006-5.01417,40.994-10.16817,53.904a111.22122,111.22122,0,0,0-26.356-10.448A63.55308,63.55308,0,0,0,1365.55253,563.56177Zm-136.52407,601.29832c-8.784,10.586-30.762,17.268-30.762,17.268s-.316-.014-4.434,10.024c-.836,2.072-1.816,4.278-2.85185,6.582a178.1994,178.1994,0,0,1-17.91617,30.832c-9.102,12.502-21.862,21.746-32.806,27.952l-3.226,1.786a69.99074,69.99074,0,0,0-.98-8.02c-1.582-7.274-7.978-17.382-7.978-17.382s-5.558,11.506-10.772,17.654c-4.926,5.862-13.48,12.1-14.66,13.02-.346-.92.806-2.564-.864-9.808-1.44-6.264-6.684-14.414-6.684-14.414s-31.39387,26.714-32.632,27.318a37.29158,37.29158,0,0,0-2.966-6.004,22.96324,22.96324,0,0,0-13.366-9.91,53.16271,53.16271,0,0,0-6.452-1.38c-1.814-.276-3.83-.49-5.99-.722-3.572-.402-7.69-.806-12.298-1.742a68.80861,68.80861,0,0,1-14.172-4.508c-18.922-8.324-29.668-25.088-65.9-104.65405-17.628-38.654-38.566-62.776-56.022-77.538-19.298-16.346-34.332-21.27-35.86-21.746l-30.674-9.346s23.992,43.292,41.21817,72.886c-86.41019-21.89-239.52427-65.686-312.9143-117.30007-69.732-49.066-112.24406-136.29407-112.24406-136.29407s-13.998,52.464,18.26,115.86006c18.176,35.744,47.382,63.912,65.354,79.078-19.24,2.448-39.114,6.566-57.634,13.378-34.218,12.602-50.72189,28.6-57.52,35.946-1.38186-1.138-3.14-2.666-5.156-4.638-6.134-6.106-14.862-16.634-24.51-34.116a211.675,211.675,0,0,1-18.894-47.438,256.03976,256.03976,0,0,1-5.33-29.15l-51.93,27.636c.606-6.148,1.584-14.256,3.11-23.834a454.829,454.829,0,0,1,22.87-87.07c25.49-67.844,40.9-134.95608,40.9-134.95608L236.314,891.58194c2.334-10.528,4.522-22.324,6.682-34.924,5.068-29.882,10.166-65.138,16.59-100.24806,9.764-53.458,36.982-92.126,61.84-117.43606,12.442-12.658,45.796-47.74,45.796-47.74a364.15637,364.15637,0,0,0-35.946,8.678c-19.7,5.816-45.306,15.018-68.868,28.606-3.254,1.858-6.364,3.89-9.38787,6.042,1.61187-4.688,3.57187-9.886,5.90387-15.43,9.534-22.776,25.086-51.06,49.224-74.024,47.754-45.372,144.93408-142.99008,155.18808-153.32408a415.16974,415.16974,0,0,1,67.86-25.902c37.18416-10.23,92.60205-14.054,92.60205-14.054l-8.786-11.348c-1.21-1.564-31.108-38.79-116.82406-46.078a.63333.63333,0,0,0-.202-.022c-8.122-.684-16.734-1.13-25.864-1.208-78.804-.8-117.31406-17.83-136.06607-33.284-4.37587-3.628-17.626-11.93-30.73-19.902-4.004-2.418-8.008-4.824-11.724-7.048.546.022,1.066.056,1.642.1,13.048.778,31.13615,2.512,51.558,3.866,27.966,1.838,60.254,2.946,90.41005.116,70.97-6.66,125.12006-16.288,163.68608-25.036a151.90005,151.90005,0,0,0-9.822,15.82c-17.65587,32.574-22.668,51.852-22.668,51.852s21.89215-38.402,83.73-70.84c15.9-8.36,29.868-15.08,41.85-20.486l30.848-6.092c-1.03586,1.598-2.16,3.296-3.398,5.09a130.28344,130.28344,0,0,0-14.834,30.294s27.852-17.03,74.312-33.24c22.32-7.79,49.972-10.742,72.726-11.7l27.448,2.346c-2.734.742-5.672,1.542-8.812,2.42-33.556,9.434-43.492,26.096-43.492,26.096s62.76-8.712,95.856-6.898c33.036,1.836,59.65,33.382,73.992,49.944,20.796,23.984,61.956,32.712,61.956,32.712s-12.818-13.688-31.568-35.152a89.06725,89.06725,0,0,1-11.35-16.036c23.764,14.162,50.176,29.882,60.314,36.052,10.858,6.626,24.252,12.09,38.538,17.384,14.2,5.234,29.898,10.512,45.97,16.74a131.06466,131.06466,0,0,1,15.72616,7.108c5.09785,2.83,8.12185,5.314,10.13785,7.582a25.84612,25.84612,0,0,1,4.206,6.56c.806,1.7,1.55616,3.478,2.332,5.328a55.04672,55.04672,0,0,1-5.79.922c-6.738.706-13.56585,3.378-19.038,6.112-1.44-2.05-2.966-4.196-4.60784-6.328a78.26636,78.26636,0,0,0-5.87616-6.912c-.46-.49-.95-.96-1.44-1.404a34.94322,34.94322,0,0,0-15.034-8.966,45.92351,45.92351,0,0,0-17.398-.886,70.178,70.178,0,0,0-10.024,2.212s39.376,49.158,52.306,55.82c6.02,3.102,13.654,5.974,23.70617,9.316,9.90785,3.298,22.46586,7.164,38.70986,12.262,64.808,20.336,84.68,28.106,103.80606,39.224,7.978,4.666,14.688,9.468,20.10417,15.64a99.48832,99.48832,0,0,1-14.92,2.562c-16.53217,1.52-51.21219-13.184-76.5862-11.586-22.266,1.412-48.822,3.422-61.608,27.248-.40584.742-.75,1.484-1.068,2.226l-.056-.116s-.23.626-.606,1.756c-.028.124-.086.238-.114.354a30.61026,30.61026,0,0,0-1.7,7.344c-1.44,8.67-1.44,21.466,8.094,30.042,38.968,34.982,67.946,34.31,84.478,45.37,8.698,5.82,10.224,15.778,9.70617,23.922-9.24617-.33-19.32617-.31-30.35818.122-26.844,1.052-64.632,7.95-102.82605,15.684-37.874,7.632-76.09588,16.07-104.208,20.292-56.136,8.416-133.84607-.252-187.3901,23.062-28.054,12.206-59.564,40.764-79.468,94.94205-23.098,62.89-16.186,109.66606.808,145.29608,8.468,17.726,19.354,32.546,30.012,45.132,10.572,12.444,20.998,22.756,28.83016,31.626,20.16386,22.84,45.96988,57.028,73.59189,95.07805,14.92,20.536,30.36,42.196,45.71,63.826,45.192,63.568,141.27823,77.536,207.12011,63.612,22.38-4.754,39.892-11.19,53.344-17.758A32.85138,32.85138,0,0,1,1229.02846,1164.86009ZM1008.97635,1043.228c-16.62-32.36-14.05585-82.146-43.09-117.09806-22.496-27.06-77.22-27.608-100.75205-26.484-6.106-7.288-11.606-14.33-16.502-21.214,18.54816-11.578,61.55-35.802,98.99205-37.256,49.254-1.928,76.358,8.196,97.26805,32.374a315.63793,315.63793,0,0,1,36.262,52.566s-2.88-35.904-25.692-66.606c-2.276-3.082-4.866-6.164-7.66185-9.26a44.38948,44.38948,0,0,1,27.56587-3.198c19.412,4.162,47.956,25.072,64.172,76.486,16.216,51.428,12.27,78.848,28.198,100.79405,6.192,8.528,10.772,14.676,14.056,19.026l3.42816,11.78c-.54816.056-1.12416.114-1.70216.202a35.46512,35.46512,0,0,0-12.212,4.248,44.80926,44.80926,0,0,0-13.91-1.7,60.56174,60.56174,0,0,0-16.072,2.794c-1.32385.418-2.536.778-3.514,1.152a50.08947,50.08947,0,0,0-16.936-3.73c-4.35-.172-3.77385-.158-7.056.808-.864-5.646-5.588-15.742-8.21-26.052-8.15-31.8-18.462-60.314-31.452-59.536-9.246.56-16.21585,10.11-21.314,17.872-5.876,8.9-12.79,21.558-21.314,36.796a84.76964,84.76964,0,0,1-18.376,22.638C1011.7405,1048.326,1010.35835,1045.878,1008.97635,1043.228Zm206.17011,21.226c2.302-5.27,4.78-11.188,6.998-17.05,1.986-5.17,3.744-10.298,5.012-14.79a136.9495,136.9495,0,0,1,4.348-13.336,44.53718,44.53718,0,0,1,2.046-4.652v0c.086.114.172.302.26.432.172.232.316.504.488.778a3.33384,3.33384,0,0,0,.23.418c1.786,3.226,3.602,8.352,4.984,15.856a.11716.11716,0,0,0,.03.086c.2,1.21.432,2.476.632,3.802,0,.058.03.116.03.174,1.41,9.634,1.124,28.874.23,47.954-.404,8.742-.922,17.068-1.382,23.88-.664.374-1.326.762-1.988,1.136a234.4519,234.4519,0,0,1-55.878,22.208c-35.94586,9.202-78.688,9-125.46406-12.026-6.078-2.736-12.212-5.804-18.434-9.288a104.21015,104.21015,0,0,1-26.47-21.546,107.61913,107.61913,0,0,0,38.48217-39.82c6.04785-10.77,11.20186-20.218,15.78186-27.85,1.642-2.738,3.168-5.258,4.666-7.518.318-.462.606-.88.894-1.312.46-.704.92-1.382,1.352-1.972v0c1.58616,4.478,4.092,9,6.684,16.864a138.55656,138.55656,0,0,1,5.126,22.206c5.472,34.578,6.192,57.924,6.192,57.924a69.745,69.745,0,0,1,14.69-11.046c.144-.088.29-.16.432-.244.20215-.102.374-.176.548-.246a27.174,27.174,0,0,1,11.43416-3.37c7.86385-.216,13.19185,2.074,16.53185,4.42a16.32653,16.32653,0,0,1,4.724,4.668,23.12589,23.12589,0,0,1,3.198-3.66,21.34493,21.34493,0,0,1,14.02616-6.092c5.70385-.128,9.33185,1.038,12.96185,3.99a27.03255,27.03255,0,0,1,2.506,2.232,16.76856,16.76856,0,0,1,15.236-8.08,18.04093,18.04093,0,0,1,6.05,1.456,13.9917,13.9917,0,0,1,2.96616,1.872,34.99935,34.99935,0,0,1,4.37785,4.162C1199.85245,1096.75805,1210.99845,1073.946,1215.14646,1064.454Zm143.63807-373.1022a215.11683,215.11683,0,0,1-8.15,26.096v.034a174.975,174.975,0,0,1-16.07385,32.094c-.34416-8.26-.46-17.462-1.03616-26.972-2.334-39.022-13.45-58.226-14.862-60.508l-7.518-11.328s-12.298,10.664-25.318,11.658a15.58354,15.58354,0,0,1-1.756.022,22.12407,22.12407,0,0,1-9.908-3.442,38.26986,38.26986,0,0,1-7.20185-5.544,67.91484,67.91484,0,0,1-10.77016,6.798c-3.572,1.778-7.518,3.26-11.034,3.398-10.138.39-24.02-9.944-24.02-9.944s-.23.18-.662.49c-2.968,2.152-15.55385,10.764-24.886,9.67a20.413,20.413,0,0,1-6.222-1.994c-7.43-3.55-14.28585-10.484-14.28585-10.484s-12.35616,12.968-22.78217,14.804a25.08227,25.08227,0,0,1-10.428-.784c-10.34-2.672-20.506-9.664-21.342-10.256-.058-.02-.058-.034-.058-.034h0a.22842.22842,0,0,0-.028.136c-.374,2.75-6.654,47.266-17.974,73.612a245.16451,245.16451,0,0,1-15.66786,30.488v-.028c-8.09415,13.364-16.76416,24.598-24.97216,32.878.028-1.8.058-3.6.058-5.4.26-26.584.144-50.946-6.914-82.332-1.87-8.456-4.954-18.536-8.036-27.754-7.546-6.154-14.2.448-22.724,2.946a1.916,1.916,0,0,1-.202.058c-.22985.058-.432.124-.662.18-.116.014-.23.058-.376.078-.142.038-.316.072-.488.118-.14385.034-.288.056-.432.078-.144.036-.288.056-.46.094-.146.02-.29.042-.43185.058-.17415.02-.31815.064-.46215.078a3.22837,3.22837,0,0,0-.46.044c-.174.014-.31785.036-.49.036a3.05813,3.05813,0,0,1-.462.022,3.20727,3.20727,0,0,1-.46.022h-.98a3.031,3.031,0,0,0-.46-.022c-.174-.022-.34585-.044-.518-.058a3.72513,3.72513,0,0,1-.462-.044c-.172-.014-.374-.058-.576-.078a2.835,2.835,0,0,1-.402-.074c-.232-.042-.434-.078-.664-.136a2.46311,2.46311,0,0,1-.346-.08c-.288-.058-.574-.136-.864-.216a1.4258,1.4258,0,0,0-.172-.056,20.41984,20.41984,0,0,1-3.34-1.348h-.03c-.374-.194-.75-.396-1.124-.604-.02785-.022-.058-.044-.086-.064-.374-.196-.718-.412-1.094-.642-.03-.02-.058-.058-.086-.08-.376-.238-.75-.49-1.124-.74-.028-.022-.05785-.036-.086-.06-.404-.272-.778-.566-1.182-.876,0,0-.028,0-.028-.022a58.08561,58.08561,0,0,1-9.476-9.65,21.93714,21.93714,0,0,1-2.794,3.262,24.74845,24.74845,0,0,1-16.562,7.424,38.81792,38.81792,0,0,1-28.514-11.176,59.65957,59.65957,0,0,1-9.418-11.852c23.012-.584,52.478-1.562,79.898-3.102,7.892-.432,15.582-.922,22.928-1.47,4.838-.352,9.474-.742,13.91-1.13q4.365-.411,8.382-.822c3.658-.388,7.114-.784,10.312-1.208,27.016-3.58,63.654-12.422,100.83806-20.358,37.098-7.928,74.224-14.804,102.68205-14.704,28.514.102,55.302,5.078,75.002,10.016,6.424,1.628,12.472,3.386,17.714,5.042-.49,4.594-1.066,9.57-1.758,14.848A487.34013,487.34013,0,0,1,1358.78453,691.35184Z"/><path class="cls-2" d="M773.42623,353.34366s.778,9.34-20.622,17.622c-21.372,8.294-30.53,5.37-30.53,5.37s12.008,12.594,44.788,7.848c9.1-1.324,18.146-4.708,26.49816-8.862,9.79186,24.568,48.30188,39.934,92.1679,35.174,28.256-3.068,52.536-13.846,67.342-28.11a158.5858,158.5858,0,0,0,32.748,8.85c62.904,9.726,73.706-18.708,74.974-32.21,1.87-19.686-10.082-36.408-10.082-36.408a10.48848,10.48848,0,0,1-.258,1.198c-1.21,5.074-7.288,25.022-26.874,28.162-7.95,1.288-20.306-3.732-20.306-3.732l-71.17189-45.234-3.71415-2.384-43.58-27.716s-47.668,13.948-92.80205,25.744c-45.162,11.78-66.938,6.214-66.938,6.214a6.94124,6.94124,0,0,0,.722.82c2.764,2.866,14.2,12.618,46.776,18.492l8.726,1.29-11.808,2.974c-48.016,11.168-97.786-4.926-97.786-4.926a172.10908,172.10908,0,0,0,46.978,23.826C746.61222,356.52766,773.42623,353.34366,773.42623,353.34366Zm106.34006-11.542.63414,3.024c2.42,12.954,1.7,33.772,1.7,33.772s6.30585-5.042,15.06385-21.386l2.764-5.66a221.35359,221.35359,0,0,0,28.458,19.174c-5.098,6.9-16.708,11.508-38.136,14.784-24.106,3.716-47.86988-10.528-52.334-13.378a24.07992,24.07992,0,0,1-4.378-11.19,24.61453,24.61453,0,0,1,2.592-13.53C841.92041,346.43165,854.56427,344.57365,879.76629,341.80165Z"/><polygon class="cls-2" points="715.534 1251.702 722.878 1251.702 722.878 1273.908 725.558 1273.908 725.558 1251.702 733.304 1251.702 733.304 1249.024 715.534 1249.024 715.534 1251.702"/><polygon class="cls-2" points="753.928 1249.024 747.534 1269.286 741.138 1249.024 736.876 1249.024 736.876 1273.908 739.526 1273.908 739.526 1252.78 746.208 1273.908 748.858 1273.908 755.512 1252.78 755.512 1273.908 758.19 1273.908 758.19 1249.024 753.928 1249.024"/></svg>