<svg width="79" height="83" viewBox="0 0 79 83" fill="none" xmlns="http://www.w3.org/2000/svg">
<path d="M8.8 46.3C10 49 12.6 52.3 17.1 52.3C20 52.3 22.8 50.3001 22.8 46.4001C22.8 41.2001 18.4 36.8 13.9 36.8C5.9 36.8 5.1 46.3 7.2 50.5C7.3 50.6 8 47.4 8.8 46.3ZM14 38.1C18.7 38.1 21.7 43.1 21.7 46.5C21.7 49.9 19.1 51.2001 17.1 51.2001C11 51.2001 9.4 44.3 9.4 44.3C9.4 44.3 8 45.3001 7.6 46.2001C7.5 46.1001 7.2 38.1 14 38.1Z" fill="white"/>
<path d="M16.4 27.2C16.4 33.2 21 37.4 25.1 37.4C30 37.4 33.7 33.1 33.7 27.4C33.7 20.6 28.8 17 24.1 17C14.6 17 12.2 27.1 12.2 27.1C12.2 27.1 14.4 24.9 16.7 24.3C16.5 25 16.4 26 16.4 27.2ZM14.8 23.7C14.8 23.7 17.5 18.1 24 18.1C29.2 18.1 32.4 22.5 32.4 27.3C32.4 32.1 29.5 36.1 25 36.1C21.5 36.1 17.5 32.4 17.5 27.1C17.5 24.2 18.3 22.8 18.3 22.8C16.4 22.9 14.8 23.7 14.8 23.7Z" fill="white"/>
<path d="M39.7 10.6C38.2 12 36.2 14.6 36.2 18.6C36.2 24.9 41.2 27.8 44.5 27.8C51.1 27.8 55.1 22.1 55.1 16.6C55.1 11.1 49.7 6.59998 43.5 6.59998C38.2 6.59998 34 10.4 34 10.4C34 10.4 37.8 9.89998 39.7 10.6ZM43.5 7.69998C50.3 7.69998 53.9 12.8 53.9 16.5C53.9 21.2 50.7 26.6 44.5 26.6C41.9 26.6 37.4 24.2 37.4 18.5C37.4 12.8 41.9 10.3 41.9 10.3C41.9 10.3 39.9 9.09998 38.1 8.99998C38.2 8.99998 40.9 7.69998 43.5 7.69998Z" fill="white"/>
<path d="M66.5 39.3C70.6 39.3 72.7 35.6 72.7 32C72.7 24.3 66.7 19.5 62.3 19.5C62.3 19.5 64.9 21.4 65.1 22.8C65 22.8 64.9 22.8 64.8 22.8C61.6 22.8 58.3 25.4 58.3 30.4C58.4 34.6 61.7 39.3 66.5 39.3ZM64.8 24C65.7 24 66.5 24.3 66.5 24.3C66.5 22.9 66 21.8 66 21.8C66 21.8 71.5 24.8 71.5 32C71.5 34.9 69.9 38.1 66.5 38.1C63.1 38.1 59.5 34.8 59.5 30.4C59.5 26 62.4 24 64.8 24Z" fill="white"/>
<path d="M21.5 73.2C21.5 73.2 22.7 70.1 26.4 68C26.4 68 26.4 75.4 31.1 75.4C35.8 75.4 38.7 65.8 62.6 68.8C62.6 68.8 68.3 65.6 68.3 59.3C68.3 47.2 58.4 34.5 46 34.5C36.2 34.5 29.2 42.5 29.2 42.5C29.2 42.5 34.3 40.3 36.9 41.5C15.6 52.6 17.6 67.9 21.5 73.2ZM39.2 41.7C39.2 41.7 37.7 39.6 34 39.9C34 39.9 39.2 35.7 46 35.7C59 35.7 67.1 49.6 67.1 59.3C67.1 64.5 62.3 67.5 62.3 67.5C37.7 64.9 34.9 74.1 31.1 74.1C27.9 74.1 27.2 67.7 27.7 65.9C23 67.9 21.5 70.6 21.5 70.6C17.5 63.2 22.4 48.8 39.2 41.7Z" fill="white"/>
<path d="M13.4 59.8C10.1 74.7 22.4 82.6 22.4 82.6C22.4 82.6 23.3 80.4 24.1 79.2C24.1 79.2 26.2 82.3 30 82.3C36.9 82.3 46.7 70.4 66.1 75.5C66.1 75.5 74.5 70 74.5 59C74.5 51.9 71.2 45.2 71.2 45.2C71.2 45.2 78.4 41.7 78.4 30.3C78.4 16.7 61.6 11.7 61.6 11.7L60.6 13.1C60.6 13.1 57.4 0.900024 44.4 0.900024C34.8 0.900024 27.3 7.10002 27.3 7.10002C28.4 9.00002 28.7 11.2 28.7 11.2C8.7 7.50002 5.4 28.9 5.4 28.9C6.7 29.9 8.2 31.2 8.2 31.2C8.2 31.2 0.5 34.2 0.5 44.4C0.5 53.7 9.4 59.6 13.4 59.8ZM12 32.3C12 32.3 10.6 29.5 8 27.8C8 27.8 12.3 8.20003 30.9 14.1C30.9 14.1 31.7 10.9 30.3 7.80002C30.3 7.80002 37 3.20002 44.4 3.20002C52.5 3.20002 58.3 9.40002 58.9 16.9C58.9 16.9 61.4 16.3 62.5 14.5C62.5 14.5 76 19.6 76 30.2C76 41.5 67.9 44.1 67.9 44.1C67.9 44.1 72.1 51 72.1 59C72.1 68.1 65.6 72.8 65.6 72.8C43.1 68.9 36.1 79.9 30 79.9C25.4 79.9 24.7 74.2 24.7 74.2C23.2 75.5 21.6 78.7 21.6 78.7C21.6 78.7 11.7 70.9 16.6 57.5C12 58.5 2.9 53.7 2.9 44.4C2.9 34.2 12 32.4 12 32.3Z" fill="white"/>
<path d="M9.40001 44.3C9.40001 44.3 11.1 51.2 17.1 51.2C19.1 51.2 21.6 49.9 21.6 46.5C21.6 43.1 18.6 38.1 13.9 38.1C7.10001 38.1 7.50001 46.2 7.50001 46.2C7.90001 45.2 9.30001 44.3 9.40001 44.3Z" fill="#F37321"/>
<path d="M17.6 27.2C17.6 32.5 21.7 36.2 25.1 36.2C29.5 36.2 32.5 32.1 32.5 27.3C32.5 22.5 29.3 18.1 24.1 18.1C17.6 18.1 14.9 23.7 14.9 23.7C14.9 23.7 16.5 22.8 18.5 22.8C18.4 22.9 17.6 24.3 17.6 27.2Z" fill="#F37321"/>
<path d="M37.4 18.6C37.4 24.3 41.9 26.7001 44.5 26.7001C50.7 26.7001 53.9 21.3 53.9 16.6C53.9 12.9 50.3 7.80005 43.5 7.80005C40.9 7.80005 38.2 9.10005 38.2 9.10005C39.9 9.20005 42 10.4 42 10.4C42 10.4 37.4 12.9 37.4 18.6Z" fill="#F37321"/>
<path d="M66.5 38.1C69.9 38.1 71.5 34.9 71.5 32C71.5 24.8 66 21.9 66 21.9C66 21.9 66.5 23 66.5 24.4C66.5 24.4 65.7 24.1 64.8 24.1C62.3 24.1 59.5 26.1 59.5 30.5C59.5 34.9 63.1 38.1 66.5 38.1Z" fill="#F37321"/>
<path d="M39.2 41.7001C22.4 48.7001 17.4 63.2 21.5 70.7C21.5 70.7 23 67.9 27.7 66C27.2 67.8 27.9 74.2 31.1 74.2C35 74.2 37.7 64.9 62.3 67.6C62.3 67.6 67.1 64.5001 67.1 59.4001C67.1 49.7001 59 35.8 46 35.8C39.2 35.8 34 40 34 40C37.8 39.6 39.2 41.7001 39.2 41.7001Z" fill="#F37321"/>
<path d="M16.6 57.6C11.8 71 21.6 78.8 21.6 78.8C21.6 78.8 23.2 75.6 24.7 74.3C24.7 74.3 25.4 80 30 80C36.1 80 43.1 68.9 65.6 72.9C65.6 72.9 72.1 68.2 72.1 59.1C72.1 51.1 68 44.3 68 44.3C68 44.3 76.1 41.6001 76.1 30.4001C76.1 19.8001 62.6 14.7 62.6 14.7C61.5 16.3 59 17 59 17C58.3 9.50005 52.5 3.30005 44.5 3.30005C37 3.30005 30.4 7.90005 30.4 7.90005C31.7 11 31 14.2 31 14.2C12.3 8.30005 7.99999 27.9 7.99999 27.9C10.6 29.6 12 32.4001 12 32.4001C12 32.4001 2.89999 34.2001 2.89999 44.4001C2.89999 53.6001 12 58.5 16.6 57.6ZM68.3 59.3C68.3 65.5 62.6 68.8 62.6 68.8C38.7 65.8 35.8 75.4 31.1 75.4C26.4 75.4 26.4 68 26.4 68C22.7 70.1 21.5 73.2 21.5 73.2C17.6 68 15.6 52.6 36.9 41.5C34.3 40.3 29.2 42.5 29.2 42.5C29.2 42.5 36.3 34.5 46 34.5C58.4 34.5 68.3 47.2 68.3 59.3ZM64.8 22.8C64.9 22.8 65 22.8 65.1 22.8C64.8 21.4 62.3 19.5 62.3 19.5C66.7 19.5 72.7 24.2 72.7 32C72.7 35.6 70.6 39.3 66.5 39.3C61.7 39.3 58.3 34.6001 58.3 30.4001C58.4 25.4001 61.6 22.8 64.8 22.8ZM43.5 6.60005C49.7 6.60005 55.1 10.9 55.1 16.6C55.1 22.3 51.1 27.8 44.5 27.8C41.2 27.8 36.2 24.9 36.2 18.6C36.2 14.6 38.2 12 39.7 10.6C37.9 10 34 10.4 34 10.4C34 10.4 38.1 6.60005 43.5 6.60005ZM24 17C28.6 17 33.6 20.6 33.6 27.4C33.6 33.1 29.9 37.4001 25 37.4001C20.9 37.4001 16.3 33.2001 16.3 27.2001C16.3 26.0001 16.4 25.1 16.6 24.3C14.2 24.9 12.1 27.1 12.1 27.1C12.1 27.1 14.5 17 24 17ZM13.9 36.9001C18.3 36.9001 22.8 41.3 22.8 46.5C22.8 50.4 19.9 52.4001 17.1 52.4001C12.6 52.4001 9.99999 49.1001 8.79999 46.4001C7.99999 47.4001 7.29999 50.6 7.29999 50.6C5.19999 46.4 5.89999 36.9001 13.9 36.9001Z" fill="#231F20"/>
</svg>
